# This file uses centimeters as units for non-parametric coordinates.

mtllib hill.mtl
g default
v 1.296585 -0.766322 -4.300539
v 1.102941 -0.766322 -4.637280
v 0.801333 -0.766322 -4.904519
v 0.421286 -0.766322 -5.076097
v 0.000000 -0.766322 -5.135218
v -0.421286 -0.766322 -5.076096
v -0.801333 -0.766322 -4.904518
v -1.102940 -0.766322 -4.637279
v -1.296584 -0.766322 -4.300539
v -1.363309 -0.766322 -3.927259
v -1.296584 -0.766322 -3.553979
v -1.102940 -0.774058 -3.217238
v -0.801333 -0.774058 -2.949999
v -0.421286 -0.774058 -2.778421
v -0.000000 -0.774058 -2.719300
v 0.421286 -0.774058 -2.778421
v 0.801333 -0.774058 -2.949999
v 1.102940 -0.774058 -3.217238
v 1.296584 -0.774058 -3.553979
v 1.363309 -0.774058 -3.927259
v 0.891031 -0.417886 -4.186004
v 0.753005 -0.417886 -4.428603
v 0.538024 -0.417886 -4.621130
v 0.267132 -0.417886 -4.744741
v -0.033153 -0.417886 -4.787334
v -0.333438 -0.417886 -4.744741
v -0.604330 -0.417886 -4.621130
v -0.819310 -0.417886 -4.428603
v -0.957336 -0.417886 -4.186004
v -1.004897 -0.417886 -3.917081
v -0.957336 -0.417886 -3.648158
v -0.819310 -0.417886 -3.405559
v -0.604330 -0.417886 -3.213031
v -0.345157 -0.413519 -2.999420
v -0.036846 -0.413519 -2.951211
v 0.271465 -0.413519 -2.999420
v 0.549596 -0.413519 -3.139328
v 0.770322 -0.413519 -3.357240
v 0.912037 -0.413519 -3.631825
v 0.938591 -0.417886 -3.917081
v 0.595743 -0.044864 -4.139124
v 0.501266 -0.044864 -4.322180
v 0.354115 -0.044864 -4.467455
v 0.168695 -0.044864 -4.560727
v -0.036846 -0.044864 -4.592866
v -0.242386 -0.044864 -4.560727
v -0.427807 -0.044864 -4.467455
v -0.574958 -0.044864 -4.322180
v -0.669434 -0.044864 -4.139124
v -0.701989 -0.044864 -3.936204
v -0.669434 -0.044864 -3.733284
v -0.574958 -0.044864 -3.550228
v -0.427807 -0.044864 -3.404953
v -0.242386 -0.044864 -3.311682
v -0.036846 -0.044864 -3.279542
v 0.168695 -0.044864 -3.311682
v 0.354115 -0.044864 -3.404953
v 0.501266 -0.044864 -3.550228
v 0.595742 -0.044864 -3.733284
v 0.628297 -0.044864 -3.936204
v 0.279449 0.163029 -4.037664
v 0.232210 0.163029 -4.129192
v 0.158635 0.163029 -4.201830
v 0.065924 0.163029 -4.248465
v -0.036846 0.163029 -4.264535
v -0.139616 0.163029 -4.248465
v -0.232326 0.163029 -4.201829
v -0.305902 0.163029 -4.129192
v -0.353140 0.163029 -4.037664
v -0.369417 0.163029 -3.936204
v -0.353140 0.163029 -3.834744
v -0.305902 0.163029 -3.743216
v -0.232326 0.163029 -3.670579
v -0.110943 0.178081 -3.622647
v -0.002807 0.178081 -3.664762
v 0.085928 0.178081 -3.678611
v 0.165976 0.178081 -3.718803
v 0.229503 0.178081 -3.781403
v 0.279448 0.163029 -3.834744
v 0.295726 0.163029 -3.936204
vt 0.737764 0.172746
vt 0.702254 0.103054
vt 0.646946 0.047746
vt 0.577254 0.012236
vt 0.500000 -0.000000
vt 0.422746 0.012236
vt 0.353054 0.047746
vt 0.297746 0.103054
vt 0.262236 0.172746
vt 0.250000 0.250000
vt 0.262236 0.327254
vt 0.297746 0.396946
vt 0.353054 0.452254
vt 0.422746 0.487764
vt 0.500000 0.500000
vt 0.577254 0.487764
vt 0.646946 0.452254
vt 0.702254 0.396946
vt 0.737764 0.327254
vt 0.750000 0.250000
vt 0.250000 0.500000
vt 0.275000 0.500000
vt 0.300000 0.500000
vt 0.325000 0.500000
vt 0.350000 0.500000
vt 0.375000 0.500000
vt 0.400000 0.500000
vt 0.425000 0.500000
vt 0.450000 0.500000
vt 0.475000 0.500000
vt 0.500000 0.500000
vt 0.525000 0.500000
vt 0.550000 0.500000
vt 0.575000 0.500000
vt 0.600000 0.500000
vt 0.625000 0.500000
vt 0.650000 0.500000
vt 0.675000 0.500000
vt 0.700000 0.500000
vt 0.725000 0.500000
vt 0.750000 0.500000
vt 0.312500 0.625000
vt 0.331250 0.625000
vt 0.350000 0.625000
vt 0.368750 0.625000
vt 0.387500 0.625000
vt 0.406250 0.625000
vt 0.425000 0.625000
vt 0.443750 0.625000
vt 0.462500 0.625000
vt 0.481250 0.625000
vt 0.500000 0.625000
vt 0.518750 0.625000
vt 0.537500 0.625000
vt 0.556250 0.625000
vt 0.575000 0.625000
vt 0.593750 0.625000
vt 0.612500 0.625000
vt 0.631250 0.625000
vt 0.650000 0.625000
vt 0.668750 0.625000
vt 0.687500 0.625000
vt 0.375000 0.750000
vt 0.387500 0.750000
vt 0.400000 0.750000
vt 0.412500 0.750000
vt 0.425000 0.750000
vt 0.437500 0.750000
vt 0.450000 0.750000
vt 0.462500 0.750000
vt 0.475000 0.750000
vt 0.487500 0.750000
vt 0.500000 0.750000
vt 0.512500 0.750000
vt 0.525000 0.750000
vt 0.537500 0.750000
vt 0.550000 0.750000
vt 0.562500 0.750000
vt 0.575000 0.750000
vt 0.587500 0.750000
vt 0.600000 0.750000
vt 0.612500 0.750000
vt 0.625000 0.750000
vt 0.437500 0.875000
vt 0.443750 0.875000
vt 0.450000 0.875000
vt 0.456250 0.875000
vt 0.462500 0.875000
vt 0.468750 0.875000
vt 0.475000 0.875000
vt 0.481250 0.875000
vt 0.487500 0.875000
vt 0.493750 0.875000
vt 0.500000 0.875000
vt 0.506250 0.875000
vt 0.512500 0.875000
vt 0.518750 0.875000
vt 0.525000 0.875000
vt 0.531250 0.875000
vt 0.537500 0.875000
vt 0.543750 0.875000
vt 0.550000 0.875000
vt 0.556250 0.875000
vt 0.562500 0.875000
vn 0.603306 0.768376 -0.213590
vn 0.508008 0.756609 -0.411668
vn 0.559996 0.698228 -0.445961
vn 0.656844 0.718289 -0.229382
vn 0.369167 0.738293 -0.564482
vn 0.409293 0.670354 -0.618955
vn 0.196589 0.720179 -0.665353
vn 0.215890 0.644439 -0.733546
vn 0.004077 0.707002 -0.707199
vn -0.002094 0.629103 -0.777319
vn -0.194290 0.701475 -0.685700
vn -0.223430 0.628855 -0.744728
vn -0.382976 0.703534 -0.598640
vn -0.425980 0.641882 -0.637596
vn -0.543461 0.710186 -0.447533
vn -0.588694 0.661068 -0.465219
vn -0.654624 0.716294 -0.241639
vn -0.693847 0.677428 -0.244268
vn -0.697327 0.716751 -0.001810
vn -0.729578 0.683894 0.002387
vn -0.662183 0.707613 0.246571
vn -0.691883 0.676782 0.251522
vn -0.556885 0.690470 0.461661
vn -0.586466 0.658219 0.472022
vn -0.450590 0.646644 0.615483
vn -0.473636 0.628943 0.616522
vn -0.275783 0.582376 0.764710
vn -0.280359 0.609498 0.741560
vn 0.006301 0.546107 0.837692
vn -0.003302 0.596545 0.802573
vn 0.245199 0.582992 0.774595
vn 0.226867 0.615262 0.754972
vn 0.439515 0.641093 0.629147
vn 0.427049 0.648218 0.630430
vn 0.571831 0.695916 0.434407
vn 0.576890 0.683031 0.447958
vn 0.641654 0.738108 0.208513
vn 0.668441 0.710643 0.219484
vn 0.648368 0.761281 -0.008378
vn 0.693786 0.720101 -0.010744
vn 0.581987 0.674273 -0.454585
vn 0.674695 0.699149 -0.236594
vn 0.428614 0.643723 -0.633964
vn 0.227302 0.618142 -0.752485
vn -0.000426 0.607539 -0.794290
vn -0.228517 0.616128 -0.753768
vn -0.430852 0.640064 -0.636148
vn -0.585611 0.669565 -0.456884
vn -0.679506 0.693968 -0.238074
vn -0.708109 0.706099 -0.002275
vn -0.671982 0.703679 0.230814
vn -0.573777 0.689004 0.442778
vn -0.449564 0.684760 0.573582
vn -0.244568 0.715562 0.654337
vn 0.014181 0.727309 0.686164
vn 0.208168 0.730962 0.649892
vn 0.399254 0.728903 0.556144
vn 0.553981 0.726015 0.407440
vn 0.660345 0.723047 0.202849
vn 0.699757 0.714206 -0.015803
vn 0.073709 0.994477 -0.074711
vn 0.086772 0.995123 -0.046909
vn 0.052660 0.993828 -0.097639
vn 0.025090 0.993279 -0.112997
vn -0.006287 0.992943 -0.118429
vn -0.037661 0.992886 -0.112953
vn -0.065227 0.993089 -0.097566
vn -0.086269 0.993472 -0.074636
vn -0.099328 0.993951 -0.046854
vn -0.103774 0.994460 -0.016720
vn -0.099428 0.994954 0.013461
vn -0.086436 0.995398 0.041371
vn -0.073064 0.994488 0.075195
vn -0.031485 0.992719 0.116264
vn 0.003085 0.997324 0.073038
vn 0.026234 0.996365 0.081049
vn 0.054302 0.996375 0.065480
vn 0.063018 0.997417 0.034454
vn 0.100966 0.994713 0.018742
vn 0.091215 0.995690 -0.016741
vn -0.001107 -0.999992 -0.003845
vn -0.001107 -0.999992 -0.003845
vn -0.001107 -0.999992 -0.003845
vn -0.001107 -0.999992 -0.003845
vn -0.001107 -0.999992 -0.003845
vn -0.001107 -0.999992 -0.003845
vn -0.001107 -0.999992 -0.003845
vn -0.001107 -0.999992 -0.003845
vn -0.001107 -0.999992 -0.003845
vn -0.001107 -0.999992 -0.003845
vn -0.001107 -0.999992 -0.003845
vn -0.001107 -0.999992 -0.003845
vn -0.001107 -0.999992 -0.003845
vn -0.001107 -0.999992 -0.003845
vn -0.001107 -0.999992 -0.003845
vn -0.001107 -0.999992 -0.003845
vn -0.001107 -0.999992 -0.003845
vn -0.001107 -0.999992 -0.003845
vn -0.001107 -0.999992 -0.003845
vn -0.001107 -0.999992 -0.003845
s 1
g pCone1
usemtl initialShadingGroup
f 1/21/1 2/22/2 22/43/3 21/42/4
f 2/22/2 3/23/5 23/44/6 22/43/3
f 3/23/5 4/24/7 24/45/8 23/44/6
f 4/24/7 5/25/9 25/46/10 24/45/8
f 5/25/9 6/26/11 26/47/12 25/46/10
f 6/26/11 7/27/13 27/48/14 26/47/12
f 7/27/13 8/28/15 28/49/16 27/48/14
f 8/28/15 9/29/17 29/50/18 28/49/16
f 9/29/17 10/30/19 30/51/20 29/50/18
f 10/30/19 11/31/21 31/52/22 30/51/20
f 11/31/21 12/32/23 32/53/24 31/52/22
f 12/32/23 13/33/25 33/54/26 32/53/24
f 13/33/25 14/34/27 34/55/28 33/54/26
f 14/34/27 15/35/29 35/56/30 34/55/28
f 15/35/29 16/36/31 36/57/32 35/56/30
f 16/36/31 17/37/33 37/58/34 36/57/32
f 17/37/33 18/38/35 38/59/36 37/58/34
f 18/38/35 19/39/37 39/60/38 38/59/36
f 19/39/37 20/40/39 40/61/40 39/60/38
f 20/40/39 1/41/1 21/62/4 40/61/40
f 21/42/4 22/43/3 42/64/41 41/63/42
f 22/43/3 23/44/6 43/65/43 42/64/41
f 23/44/6 24/45/8 44/66/44 43/65/43
f 24/45/8 25/46/10 45/67/45 44/66/44
f 25/46/10 26/47/12 46/68/46 45/67/45
f 26/47/12 27/48/14 47/69/47 46/68/46
f 27/48/14 28/49/16 48/70/48 47/69/47
f 28/49/16 29/50/18 49/71/49 48/70/48
f 29/50/18 30/51/20 50/72/50 49/71/49
f 30/51/20 31/52/22 51/73/51 50/72/50
f 31/52/22 32/53/24 52/74/52 51/73/51
f 32/53/24 33/54/26 53/75/53 52/74/52
f 33/54/26 34/55/28 54/76/54 53/75/53
f 34/55/28 35/56/30 55/77/55 54/76/54
f 35/56/30 36/57/32 56/78/56 55/77/55
f 36/57/32 37/58/34 57/79/57 56/78/56
f 37/58/34 38/59/36 58/80/58 57/79/57
f 38/59/36 39/60/38 59/81/59 58/80/58
f 39/60/38 40/61/40 60/82/60 59/81/59
f 40/61/40 21/62/4 41/83/42 60/82/60
f 41/63/42 42/64/41 62/85/61 61/84/62
f 42/64/41 43/65/43 63/86/63 62/85/61
f 43/65/43 44/66/44 64/87/64 63/86/63
f 44/66/44 45/67/45 65/88/65 64/87/64
f 45/67/45 46/68/46 66/89/66 65/88/65
f 46/68/46 47/69/47 67/90/67 66/89/66
f 47/69/47 48/70/48 68/91/68 67/90/67
f 48/70/48 49/71/49 69/92/69 68/91/68
f 49/71/49 50/72/50 70/93/70 69/92/69
f 50/72/50 51/73/51 71/94/71 70/93/70
f 51/73/51 52/74/52 72/95/72 71/94/71
f 52/74/52 53/75/53 73/96/73 72/95/72
f 53/75/53 54/76/54 74/97/74 73/96/73
f 54/76/54 55/77/55 75/98/75 74/97/74
f 55/77/55 56/78/56 76/99/76 75/98/75
f 56/78/56 57/79/57 77/100/77 76/99/76
f 57/79/57 58/80/58 78/101/78 77/100/77
f 58/80/58 59/81/59 79/102/79 78/101/78
f 59/81/59 60/82/60 80/103/80 79/102/79
f 60/82/60 41/83/42 61/104/62 80/103/80
s off
f 1/1/81 20/20/82 19/19/83 18/18/84 17/17/85 16/16/86 15/15/87 14/14/88 13/13/89 12/12/90 11/11/91 10/10/92 9/9/93 8/8/94 7/7/95 6/6/96 5/5/97 4/4/98 3/3/99 2/2/100
s 1
f 80/103/80 61/84/62 62/85/61 63/86/63 64/87/64 65/88/65 66/89/66 67/90/67 68/91/68 69/92/69 70/93/70 71/94/71 72/95/72 73/96/73 74/97/74 75/98/75 76/99/76 77/100/77 78/101/78 79/102/79
